# xmcd
#
# Track frame offsets: 
#        150
#        14042
#        35825
#        60594
#        81473
#        104078
#        125149
#        144038
#        163239
#        190853
#        205824
#        223193
#        242253
#
# Disc length: 3464 seconds
#
# Revision: 10
# Processed by: cddbd v1.4PL0 Copyright (c) Steve Scherf et al.
# Submitted via: ExactAudioCopy v0.90b4
#
DISCID=c50d860d
DTITLE=Chris Rea - Stony Road
DYEAR=2002
DGENRE=Blues
TTITLE0=Changing Times
TTITLE1=Easy Rider
TTITLE2=Stony Road
TTITLE3=Dancing the Blues Away
TTITLE4=Burning Feet
TTITLE5=Mississippi
TTITLE6=Slow Dance
TTITLE7=When the Good Lord Talked to Jesus
TTITLE8=Heading for the City
TTITLE9=So Lonely
TTITLE10=Someday My Peace will Come
TTITLE11=The Hustler
TTITLE12=Give that Girl a Diamond
EXTD=YEAR: 2002
EXTT0=
EXTT1=
EXTT2=
EXTT3=
EXTT4=
EXTT5=
EXTT6=
EXTT7=
EXTT8=
EXTT9=
EXTT10=
EXTT11=
EXTT12=
PLAYORDER=
